<?xml version="1.0" standalone="no"?>
<!DOCTYPE svg PUBLIC "-//W3C//DTD SVG 20010904//EN"
 "http://www.w3.org/TR/2001/REC-SVG-20010904/DTD/svg10.dtd">
<svg version="1.0" xmlns="http://www.w3.org/2000/svg"
 width="256.000000pt" height="256.000000pt" viewBox="0 0 256.000000 256.000000"
 preserveAspectRatio="xMidYMid meet">
<metadata>
Created by potrace 1.14, written by Peter Selinger 2001-2017
</metadata>
<g transform="translate(0.000000,256.000000) scale(0.100000,-0.100000)"
fill="#000000" stroke="none">
<path d="M1055 2404 c-110 -79 -218 -157 -240 -172 -170 -119 -764 -548 -780
-563 -16 -16 -20 -33 -20 -99 -1 -44 1 -80 4 -80 2 0 12 6 20 14 25 22 1121
806 1126 806 3 0 5 -493 5 -1095 l0 -1094 44 -30 43 -30 42 30 41 31 0 1094
c0 602 2 1094 5 1094 5 0 279 -195 550 -391 50 -36 113 -81 140 -101 28 -19
131 -93 231 -165 99 -72 192 -138 205 -147 l25 -16 -1 85 -1 84 -204 147
c-113 81 -225 161 -250 179 -67 47 -763 546 -775 555 -6 4 -99 -56 -210 -136z"/>
<path d="M1468 2028 c-3 -11 -2 -1764 1 -1808 1 -9 4 -11 9 -5 4 6 41 35 83
64 l75 54 0 705 c-1 387 1 705 4 707 9 6 245 -167 251 -183 3 -9 5 -245 5
-525 -1 -279 2 -507 6 -507 4 0 43 25 85 55 l78 55 1 395 c0 217 3 397 6 400
3 4 62 -33 130 -82 l124 -88 -1 -210 c-1 -116 1 -213 2 -217 4 -7 69 35 138
88 l30 23 0 182 0 181 -130 92 c-159 114 -601 430 -635 456 -64 48 -251 180
-254 180 -2 0 -6 -6 -8 -12z"/>
<path d="M950 1956 l-75 -54 -5 -358 -5 -359 -340 0 -340 0 0 113 c0 62 -2
115 -6 118 -4 2 -43 -20 -86 -51 l-78 -55 0 -181 0 -181 80 -58 c44 -32 82
-56 85 -53 3 2 5 44 5 91 l0 87 343 0 342 0 0 -341 0 -340 73 -50 c39 -28 78
-54 85 -58 9 -6 12 175 12 888 0 493 -3 896 -7 896 -5 -1 -42 -25 -83 -54z"/>
</g>
</svg>
